<svg xmlns="http://www.w3.org/2000/svg" xmlns:xlink="http://www.w3.org/1999/xlink">
    <!-- white-logo -->
    <symbol id="white-logo" viewBox="0 0 153.061 23.607">
        <path id="パス_13" data-name="パス 13" d="M3.995-23.08H9.906L14.229-9.246,18.556-23.08h5.7L27.229,0H22.49L20.452-16.242,15.373,0H13.114L7.9-16.383,5.978,0H1.16Zm36.308,0h3.854L53.559,0H48.553L46.706-4.535H37.848L36.039,0h-4.98Zm1.927,7.559-2.713,6.8H45ZM58.963-23.08h4.975v9.747h.07l7.64-9.747h6.106L68.986-12.06,78.123,0h-5.98L64.008-10.8h-.07V0H58.963Zm23.79,11.531A11.351,11.351,0,0,1,86.137-20a11.051,11.051,0,0,1,8.024-3.331,11.523,11.523,0,0,1,8.49,3.349,11.456,11.456,0,0,1,3.357,8.464,11.506,11.506,0,0,1-3.322,8.438A11.282,11.282,0,0,1,94.319.281a11.11,11.11,0,0,1-8.306-3.34A11.652,11.652,0,0,1,82.753-11.549ZM94.39-18.721a5.728,5.728,0,0,0-4.676,2,7.834,7.834,0,0,0-1.775,5.309,7.355,7.355,0,0,0,1.811,5.1,5.872,5.872,0,0,0,4.57,2.021,5.984,5.984,0,0,0,4.685-2,7.6,7.6,0,0,0,1.784-5.265,7.451,7.451,0,0,0-1.749-5.168A6.1,6.1,0,0,0,94.39-18.721Zm16.346-4.359h15.521v4.9h-5.291V0h-4.975V-18.176h-5.256Zm20.23,11.531A11.351,11.351,0,0,1,134.349-20a11.051,11.051,0,0,1,8.024-3.331,11.523,11.523,0,0,1,8.49,3.349,11.456,11.456,0,0,1,3.357,8.464A11.506,11.506,0,0,1,150.9-3.076,11.282,11.282,0,0,1,142.532.281a11.11,11.11,0,0,1-8.306-3.34A11.652,11.652,0,0,1,130.965-11.549ZM142.6-18.721a5.728,5.728,0,0,0-4.676,2,7.834,7.834,0,0,0-1.775,5.309,7.355,7.355,0,0,0,1.811,5.1,5.872,5.872,0,0,0,4.57,2.021,5.984,5.984,0,0,0,4.685-2A7.6,7.6,0,0,0,149-11.549a7.451,7.451,0,0,0-1.749-5.168A6.1,6.1,0,0,0,142.6-18.721Z" transform="translate(-1.16 23.326)" fill="#fff"/>
    </symbol>
    <!-- brack-logo -->
    <symbol id="brack-logo" viewBox="0 0 153.061 23.607">
        <path id="パス_10" data-name="パス 10" d="M3.995-23.08H9.906L14.229-9.246,18.556-23.08h5.7L27.229,0H22.49L20.452-16.242,15.373,0H13.114L7.9-16.383,5.978,0H1.16Zm36.308,0h3.854L53.559,0H48.553L46.706-4.535H37.848L36.039,0h-4.98Zm1.927,7.559-2.713,6.8H45ZM58.963-23.08h4.975v9.747h.07l7.64-9.747h6.106L68.986-12.06,78.123,0h-5.98L64.008-10.8h-.07V0H58.963Zm23.79,11.531A11.351,11.351,0,0,1,86.137-20a11.051,11.051,0,0,1,8.024-3.331,11.523,11.523,0,0,1,8.49,3.349,11.456,11.456,0,0,1,3.357,8.464,11.506,11.506,0,0,1-3.322,8.438A11.282,11.282,0,0,1,94.319.281a11.11,11.11,0,0,1-8.306-3.34A11.652,11.652,0,0,1,82.753-11.549ZM94.39-18.721a5.728,5.728,0,0,0-4.676,2,7.834,7.834,0,0,0-1.775,5.309,7.355,7.355,0,0,0,1.811,5.1,5.872,5.872,0,0,0,4.57,2.021,5.984,5.984,0,0,0,4.685-2,7.6,7.6,0,0,0,1.784-5.265,7.451,7.451,0,0,0-1.749-5.168A6.1,6.1,0,0,0,94.39-18.721Zm16.346-4.359h15.521v4.9h-5.291V0h-4.975V-18.176h-5.256Zm20.23,11.531A11.351,11.351,0,0,1,134.349-20a11.051,11.051,0,0,1,8.024-3.331,11.523,11.523,0,0,1,8.49,3.349,11.456,11.456,0,0,1,3.357,8.464A11.506,11.506,0,0,1,150.9-3.076,11.282,11.282,0,0,1,142.532.281a11.11,11.11,0,0,1-8.306-3.34A11.652,11.652,0,0,1,130.965-11.549ZM142.6-18.721a5.728,5.728,0,0,0-4.676,2,7.834,7.834,0,0,0-1.775,5.309,7.355,7.355,0,0,0,1.811,5.1,5.872,5.872,0,0,0,4.57,2.021,5.984,5.984,0,0,0,4.685-2A7.6,7.6,0,0,0,149-11.549a7.451,7.451,0,0,0-1.749-5.168A6.1,6.1,0,0,0,142.6-18.721Z" transform="translate(-1.16 23.326)"/>
    </symbol>
    <!-- good -->
    <symbol id="good" viewBox="0 0 16.5 16.925">
        <g id="シンプルな_いいね_の手の線画アイコン_1_" data-name="シンプルな「いいね」の手の線画アイコン (1)" transform="translate(-39.272)"><path id="パス_1" data-name="パス 1" d="M55.253,9.758a1.615,1.615,0,0,0,.518-1.139A2.206,2.206,0,0,0,53.43,6.585H50.441a1.812,1.812,0,0,1-.823-.139l-.005-.006a2.563,2.563,0,0,1,.466-.7,3.329,3.329,0,0,0,.526-.774l.051-.119A4.251,4.251,0,0,0,50.9,1.436,2.219,2.219,0,0,0,48.827,0a2.195,2.195,0,0,0-2.17,1.814A12.674,12.674,0,0,1,43.948,5.3a13.706,13.706,0,0,1-1.592,1.327c-.452.34-.92.691-1.415,1.121a5.245,5.245,0,0,0-1.576,4.871,4.509,4.509,0,0,0,2.681,3.422,17.132,17.132,0,0,0,5.192.851c.727.023,1.276.034,1.725.034a15.8,15.8,0,0,0,1.829-.1l.183-.018.031,0,.878-.111.017,0a2.132,2.132,0,0,0,1.963-2l0-.072a1.972,1.972,0,0,0,1.1-1.72,1.707,1.707,0,0,0-.118-.645,1.909,1.909,0,0,0,.736-1.475A1.816,1.816,0,0,0,55.253,9.758Zm-1.762.134h.685a1.134,1.134,0,0,1,.457.891,1.148,1.148,0,0,1-.518.933H53.2a.276.276,0,1,0,0,.546h.573a.837.837,0,0,1,.245.64,1.146,1.146,0,0,1-.513.93H52.62a.276.276,0,1,0,0,.546h.249a1,1,0,0,1,.052.316,1.276,1.276,0,0,1-1.172,1.193L50.871,16a15.956,15.956,0,0,1-1.907.107c-.421,0-.958-.01-1.69-.034a16.278,16.278,0,0,1-4.806-.764c-2.837-1.232-2.839-5.262-.859-6.981,1.118-.97,2.15-1.568,3.058-2.5,1.4-1.434,2.779-3.137,2.921-3.881a1.24,1.24,0,0,1,2.424-.241,3.719,3.719,0,0,1-.293,2.977c-.249.59-1.62,1.547-.784,2.326A2.47,2.47,0,0,0,50.42,7.4h3.01a1.315,1.315,0,0,1,1.4,1.214.949.949,0,0,1-.434.727h-.9a.276.276,0,1,0,0,.546Z" transform="translate(0 0)"/></g>
    </symbol>
    <!-- bad -->
    <symbol id="bad" viewBox="0 0 16.5 16.925">
        <g id="よくないねアイコン2" transform="translate(-38.118 0)"><path id="パス_2" data-name="パス 2" d="M52.128,7.171a2.182,2.182,0,0,0-.362-2.462,2.226,2.226,0,0,0-.857-2.356A2.209,2.209,0,0,0,49.049.225h-.005l-.015,0L48.283.114l-.027,0L48.1.094h0A11.771,11.771,0,0,0,46.534,0c-.384,0-.848.011-1.463.033a18.305,18.305,0,0,0-2.4.251,8.006,8.006,0,0,0-2.078.6,4.568,4.568,0,0,0-2.394,3.5A6.371,6.371,0,0,0,38.118,5.4,5.6,5.6,0,0,0,39.6,9.33c.425.425.824.77,1.205,1.1h0a11.907,11.907,0,0,1,1.315,1.261,21.637,21.637,0,0,1,1.648,2.177c.187.288.33.533.427.722.049.095.086.175.111.238a.67.67,0,0,1,.04.123l.041.246-.041-.246a2.511,2.511,0,0,0,.712,1.408,1.954,1.954,0,0,0,1.362.561,1.924,1.924,0,0,0,1.208-.429A2.477,2.477,0,0,0,48.4,15.36h0a4.169,4.169,0,0,0,.236-1.39,5.856,5.856,0,0,0-.445-2.09l0,.01-.046-.125,0-.011,0,.012a3.5,3.5,0,0,0-.474-.81h0c-.062-.087-.154-.216-.229-.337l-.03-.051a2.793,2.793,0,0,1,.369-.038H50.3a2.224,2.224,0,0,0,2.221-2.222A1.9,1.9,0,0,0,52.128,7.171ZM50.3,9.486H47.761a1.879,1.879,0,0,0-1.251.383c-.7.755.451,1.684.66,2.257a4.09,4.09,0,0,1,.247,2.889,1.114,1.114,0,0,1-1,.862,1.155,1.155,0,0,1-1.045-1.1,12.51,12.51,0,0,0-2.461-3.766c-.766-.9-1.635-1.481-2.577-2.423-1.668-1.668-1.666-5.578.724-6.774a12.073,12.073,0,0,1,4.049-.742c.618-.023,1.07-.033,1.424-.033a11.713,11.713,0,0,1,1.607.1l.74.107a1.174,1.174,0,0,1,.987,1.158,1.107,1.107,0,0,1-.044.307h-.209a.265.265,0,1,0,0,.53h.744a1.162,1.162,0,0,1,.432.9.883.883,0,0,1-.207.621H50.1a.265.265,0,0,0,0,.53h.774a1.16,1.16,0,0,1,.051,1.77h-.577a.265.265,0,0,0,0,.53h.761a.952.952,0,0,1,.366.705A1.177,1.177,0,0,1,50.3,9.486Z" transform="translate(0 0)"/></g>
    </symbol>
    <!-- strong -->
    <symbol id="strong" viewBox="0 0 16.5 16.925">
        <g id="マッチョのイラスト4" transform="translate(-44.054)"><path id="パス_3" data-name="パス 3" d="M58.026,10.033c-.011-.076-.059-.4-.124-.776-.037-.213-.079-.442-.124-.65-.022-.1-.045-.2-.068-.293s-.047-.171-.072-.243a43.8,43.8,0,0,0-2.2-4.887C54.718,1.774,54.131.746,54.1.7A1.244,1.244,0,0,0,52.986,0a1.218,1.218,0,0,0-.152.009L49,.478a1.085,1.085,0,0,0-.817.55h0s-.113.186-.251.429c-.069.121-.143.258-.214.394s-.137.272-.188.4a1.388,1.388,0,0,0-.111.536,1.172,1.172,0,0,0,.131.545,1.2,1.2,0,0,0,.381.429,1.35,1.35,0,0,0,.214.117,4.626,4.626,0,0,0,.5.185,9.556,9.556,0,0,0,.926.238c.156.032.307.058.447.076a2.959,2.959,0,0,0,.386.03,1.2,1.2,0,0,0,.164-.01.618.618,0,0,0,.166-.044h0a1.075,1.075,0,0,0,.274-.18,1.859,1.859,0,0,0,.344-.426,3.768,3.768,0,0,0,.306-.655c.017-.047.032-.091.045-.13a2.351,2.351,0,0,0,.29-.063c.047-.014.1-.03.149-.048.027.111.06.256.093.425a7.335,7.335,0,0,1,.146,1.353q0,.122-.006.241-.013.239-.013.483A14.464,14.464,0,0,0,52.5,7.245q.016.118.032.235a4.13,4.13,0,0,0-.7-.452,4.069,4.069,0,0,0-1.827-.444,3.629,3.629,0,0,0-1.78.46,3.948,3.948,0,0,0-.975.775,7.613,7.613,0,0,0-1.344-.76,5.114,5.114,0,0,0-1.853-.46v.566a3.853,3.853,0,0,1,.9.149,6.338,6.338,0,0,1,1.369.585c.195.11.367.219.509.317l.061.043c-.066.091-.131.186-.193.286l.48.3A3.7,3.7,0,0,1,48.5,7.538a3.063,3.063,0,0,1,1.5-.388,3.5,3.5,0,0,1,1.572.383,3.4,3.4,0,0,1,1.1.881c.031.191.062.376.09.552l.559-.09c-.035-.218-.073-.448-.112-.685l0,0-.006-.008c-.053-.325-.106-.663-.152-1.009a13.962,13.962,0,0,1-.139-1.819c0-.153,0-.3.012-.451,0-.091.007-.182.007-.273a7.9,7.9,0,0,0-.16-1.48c-.048-.246-.1-.442-.127-.56a2.194,2.194,0,0,0,.31-.258l-.4-.4a1.612,1.612,0,0,1-.374.279,1.761,1.761,0,0,1-.505.18,1.47,1.47,0,0,1-.157.022l-.039,0h-.226l-.055.212a3.843,3.843,0,0,1-.21.57,2.238,2.238,0,0,1-.238.407,1.065,1.065,0,0,1-.135.148.531.531,0,0,1-.123.082l-.029,0c-.019,0-.045,0-.076,0a2.223,2.223,0,0,1-.225-.015c-.155-.017-.342-.048-.536-.089a8.844,8.844,0,0,1-.864-.227c-.13-.042-.246-.084-.339-.122-.046-.019-.086-.038-.118-.053a.617.617,0,0,1-.066-.038.638.638,0,0,1-.2-.227.611.611,0,0,1-.067-.284.828.828,0,0,1,.068-.318c.042-.1.1-.227.169-.354.1-.191.211-.389.3-.539.043-.075.08-.137.106-.181l.03-.051.008-.013,0,0,0-.006,0-.007a.519.519,0,0,1,.395-.27L52.9.571h0a.689.689,0,0,1,.082,0A.679.679,0,0,1,53.6.957l0,.01.006.01.006.012c.069.121.67,1.179,1.389,2.588a42.584,42.584,0,0,1,2.1,4.683c.016.047.037.115.057.194.036.14.074.317.11.5.054.277.1.571.139.8.018.112.032.207.042.274l.011.077,0,.027,0,.024.007.023a.368.368,0,0,1,.017.114.58.58,0,0,1-.04.2.711.711,0,0,1-.208.292.683.683,0,0,1-.363.154l-2.07.254-.057.039h0a13.045,13.045,0,0,1-1.21.716,10.561,10.561,0,0,1-1.136.517,5.55,5.55,0,0,1-1.19.323c-.241.033-.571.059-.942.077s-.782.027-1.192.027c-.553,0-1.1-.017-1.544-.052-.22-.018-.413-.04-.561-.066-.074-.013-.136-.026-.183-.039a.5.5,0,0,1-.084-.03l-.524-.282.113.585a.725.725,0,0,1,.012.137,1.742,1.742,0,0,1-.2.719,5.781,5.781,0,0,1-.993,1.372,9.568,9.568,0,0,1-1.069.974v.708a9.808,9.808,0,0,0,1.92-1.8,5.446,5.446,0,0,0,.651-1.009,2.507,2.507,0,0,0,.244-.78c.07.012.145.024.226.034.259.033.57.056.911.072s.71.023,1.081.023c.418,0,.838-.01,1.219-.028s.723-.045.991-.082a6.148,6.148,0,0,0,1.335-.362,12.271,12.271,0,0,0,1.708-.829c.331-.192.574-.35.68-.42l1.928-.236h0a1.254,1.254,0,0,0,.943-.617,1.193,1.193,0,0,0,.167-.594A.941.941,0,0,0,58.026,10.033Z"/></g>
    </symbol>
    <!-- interest -->
    <symbol id="interest" viewBox="0 0 16.5 16.925">
        <g id="シナプスのフリーアイコン2" transform="translate(113.595 127.354)"><g id="グループ_26" data-name="グループ 26"><path id="パス_4" data-name="パス 4" d="M119.67,73.981a.6.6,0,0,0-.6.6.61.61,0,0,0,.025.17l-.8.6a.815.815,0,0,0-.776-.135l-.648-.981a.5.5,0,1,0-.425.236.47.47,0,0,0,.078-.007l.649.981a.819.819,0,0,0-.162.273l-1.152-.1a.662.662,0,1,0-.034.413l1.151.1a.816.816,0,0,0,.276.484l-.282.585-.057,0a.6.6,0,1,0,.431.183l.282-.584a.815.815,0,0,0,.781-.271l.712.346a.467.467,0,1,0,.182-.373l-.712-.346a.814.814,0,0,0-.044-.468l.8-.6a.6.6,0,1,0,.326-1.1Z" transform="translate(-224.632 -197.014)"/><path id="パス_5" data-name="パス 5" d="M45.591,9.211,44.474,6.843V6.812a6.813,6.813,0,0,0-13.626,0,7.556,7.556,0,0,0,1.569,4.634v2.343A1.453,1.453,0,0,0,33.3,15.13l.044.019.046.015,5.381,1.663a1.456,1.456,0,0,0,1.97-1.362V14.158h2.035A1.458,1.458,0,0,0,44.237,12.7V11.47l.673-.327A1.462,1.462,0,0,0,45.591,9.211Zm-1.1,1.074-.926.45a.5.5,0,0,0-.283.453V12.7a.5.5,0,0,1-.5.5H40.3a.5.5,0,0,0-.5.5v1.755a.5.5,0,0,1-.7.463l-5.416-1.674a.5.5,0,0,1-.306-.464V11.128A6.7,6.7,0,0,1,31.8,6.812a5.86,5.86,0,0,1,11.72,0c0,.078,0,.155-.006.232l1.214,2.574A.5.5,0,0,1,44.494,10.286Z" transform="translate(-144.443 -127.354)"/></g></g>
    </symbol>
    <!-- dream -->
    <symbol id="dream" viewBox="0 0 16.5 16.925">
        <g id="射的のアイコン" transform="translate(-0.003 0)"><path id="パス_6" data-name="パス 6" d="M129.931,227.159l.826-.826a2.6,2.6,0,1,0,1.274,1.275l-.826.826a1.561,1.561,0,1,1-1.275-1.275Z" transform="translate(-122.839 -218.578)"/><path id="パス_7" data-name="パス 7" d="M70.831,163.366a4.685,4.685,0,1,0,1.275,1.275l-.754.754a3.644,3.644,0,1,1-1.275-1.275Z" transform="translate(-61.452 -157.073)"/><path id="パス_8" data-name="パス 8" d="M11.4,102.454a5.725,5.725,0,1,1-1.275-1.275l.743-.743a6.766,6.766,0,1,0,1.275,1.274Z" transform="translate(0 -95.634)"/><path id="パス_9" data-name="パス 9" d="M201.108,2.316a.282.282,0,0,0-.281-.179l-1.926.09L198.992.3a.282.282,0,0,0-.179-.282.324.324,0,0,0-.342.08l-2.055,2.055-.106,2.273L191.236,9.5a.52.52,0,1,0,.391.391L196.7,4.82l2.273-.106,2.055-2.055A.324.324,0,0,0,201.108,2.316Z" transform="translate(-184.182 0)"/></g>
    </symbol>
</svg>





