<svg xmlns="http://www.w3.org/2000/svg" xmlns:xlink="http://www.w3.org/1999/xlink">
    <!-- white-logo -->
    <symbol id="white-logo" viewBox="0 0 153.061 23.607">
        <path id="パス_13" data-name="パス 13" d="M3.995-23.08H9.906L14.229-9.246,18.556-23.08h5.7L27.229,0H22.49L20.452-16.242,15.373,0H13.114L7.9-16.383,5.978,0H1.16Zm36.308,0h3.854L53.559,0H48.553L46.706-4.535H37.848L36.039,0h-4.98Zm1.927,7.559-2.713,6.8H45ZM58.963-23.08h4.975v9.747h.07l7.64-9.747h6.106L68.986-12.06,78.123,0h-5.98L64.008-10.8h-.07V0H58.963Zm23.79,11.531A11.351,11.351,0,0,1,86.137-20a11.051,11.051,0,0,1,8.024-3.331,11.523,11.523,0,0,1,8.49,3.349,11.456,11.456,0,0,1,3.357,8.464,11.506,11.506,0,0,1-3.322,8.438A11.282,11.282,0,0,1,94.319.281a11.11,11.11,0,0,1-8.306-3.34A11.652,11.652,0,0,1,82.753-11.549ZM94.39-18.721a5.728,5.728,0,0,0-4.676,2,7.834,7.834,0,0,0-1.775,5.309,7.355,7.355,0,0,0,1.811,5.1,5.872,5.872,0,0,0,4.57,2.021,5.984,5.984,0,0,0,4.685-2,7.6,7.6,0,0,0,1.784-5.265,7.451,7.451,0,0,0-1.749-5.168A6.1,6.1,0,0,0,94.39-18.721Zm16.346-4.359h15.521v4.9h-5.291V0h-4.975V-18.176h-5.256Zm20.23,11.531A11.351,11.351,0,0,1,134.349-20a11.051,11.051,0,0,1,8.024-3.331,11.523,11.523,0,0,1,8.49,3.349,11.456,11.456,0,0,1,3.357,8.464A11.506,11.506,0,0,1,150.9-3.076,11.282,11.282,0,0,1,142.532.281a11.11,11.11,0,0,1-8.306-3.34A11.652,11.652,0,0,1,130.965-11.549ZM142.6-18.721a5.728,5.728,0,0,0-4.676,2,7.834,7.834,0,0,0-1.775,5.309,7.355,7.355,0,0,0,1.811,5.1,5.872,5.872,0,0,0,4.57,2.021,5.984,5.984,0,0,0,4.685-2A7.6,7.6,0,0,0,149-11.549a7.451,7.451,0,0,0-1.749-5.168A6.1,6.1,0,0,0,142.6-18.721Z" transform="translate(-1.16 23.326)" fill="#fff"/>
    </symbol>
    <!-- brack-logo -->
    <symbol id="brack-logo" viewBox="0 0 153.061 23.607">
        <path id="パス_10" data-name="パス 10" d="M3.995-23.08H9.906L14.229-9.246,18.556-23.08h5.7L27.229,0H22.49L20.452-16.242,15.373,0H13.114L7.9-16.383,5.978,0H1.16Zm36.308,0h3.854L53.559,0H48.553L46.706-4.535H37.848L36.039,0h-4.98Zm1.927,7.559-2.713,6.8H45ZM58.963-23.08h4.975v9.747h.07l7.64-9.747h6.106L68.986-12.06,78.123,0h-5.98L64.008-10.8h-.07V0H58.963Zm23.79,11.531A11.351,11.351,0,0,1,86.137-20a11.051,11.051,0,0,1,8.024-3.331,11.523,11.523,0,0,1,8.49,3.349,11.456,11.456,0,0,1,3.357,8.464,11.506,11.506,0,0,1-3.322,8.438A11.282,11.282,0,0,1,94.319.281a11.11,11.11,0,0,1-8.306-3.34A11.652,11.652,0,0,1,82.753-11.549ZM94.39-18.721a5.728,5.728,0,0,0-4.676,2,7.834,7.834,0,0,0-1.775,5.309,7.355,7.355,0,0,0,1.811,5.1,5.872,5.872,0,0,0,4.57,2.021,5.984,5.984,0,0,0,4.685-2,7.6,7.6,0,0,0,1.784-5.265,7.451,7.451,0,0,0-1.749-5.168A6.1,6.1,0,0,0,94.39-18.721Zm16.346-4.359h15.521v4.9h-5.291V0h-4.975V-18.176h-5.256Zm20.23,11.531A11.351,11.351,0,0,1,134.349-20a11.051,11.051,0,0,1,8.024-3.331,11.523,11.523,0,0,1,8.49,3.349,11.456,11.456,0,0,1,3.357,8.464A11.506,11.506,0,0,1,150.9-3.076,11.282,11.282,0,0,1,142.532.281a11.11,11.11,0,0,1-8.306-3.34A11.652,11.652,0,0,1,130.965-11.549ZM142.6-18.721a5.728,5.728,0,0,0-4.676,2,7.834,7.834,0,0,0-1.775,5.309,7.355,7.355,0,0,0,1.811,5.1,5.872,5.872,0,0,0,4.57,2.021,5.984,5.984,0,0,0,4.685-2A7.6,7.6,0,0,0,149-11.549a7.451,7.451,0,0,0-1.749-5.168A6.1,6.1,0,0,0,142.6-18.721Z" transform="translate(-1.16 23.326)"/>
    </symbol>
    <!-- good -->
    <symbol id="good" viewBox="0 0 16.5 16.925">
        <g id="シンプルな_いいね_の手の線画アイコン_1_" data-name="シンプルな「いいね」の手の線画アイコン (1)" transform="translate(-39.272)"><path id="パス_1" data-name="パス 1" d="M55.253,9.758a1.615,1.615,0,0,0,.518-1.139A2.206,2.206,0,0,0,53.43,6.585H50.441a1.812,1.812,0,0,1-.823-.139l-.005-.006a2.563,2.563,0,0,1,.466-.7,3.329,3.329,0,0,0,.526-.774l.051-.119A4.251,4.251,0,0,0,50.9,1.436,2.219,2.219,0,0,0,48.827,0a2.195,2.195,0,0,0-2.17,1.814A12.674,12.674,0,0,1,43.948,5.3a13.706,13.706,0,0,1-1.592,1.327c-.452.34-.92.691-1.415,1.121a5.245,5.245,0,0,0-1.576,4.871,4.509,4.509,0,0,0,2.681,3.422,17.132,17.132,0,0,0,5.192.851c.727.023,1.276.034,1.725.034a15.8,15.8,0,0,0,1.829-.1l.183-.018.031,0,.878-.111.017,0a2.132,2.132,0,0,0,1.963-2l0-.072a1.972,1.972,0,0,0,1.1-1.72,1.707,1.707,0,0,0-.118-.645,1.909,1.909,0,0,0,.736-1.475A1.816,1.816,0,0,0,55.253,9.758Zm-1.762.134h.685a1.134,1.134,0,0,1,.457.891,1.148,1.148,0,0,1-.518.933H53.2a.276.276,0,1,0,0,.546h.573a.837.837,0,0,1,.245.64,1.146,1.146,0,0,1-.513.93H52.62a.276.276,0,1,0,0,.546h.249a1,1,0,0,1,.052.316,1.276,1.276,0,0,1-1.172,1.193L50.871,16a15.956,15.956,0,0,1-1.907.107c-.421,0-.958-.01-1.69-.034a16.278,16.278,0,0,1-4.806-.764c-2.837-1.232-2.839-5.262-.859-6.981,1.118-.97,2.15-1.568,3.058-2.5,1.4-1.434,2.779-3.137,2.921-3.881a1.24,1.24,0,0,1,2.424-.241,3.719,3.719,0,0,1-.293,2.977c-.249.59-1.62,1.547-.784,2.326A2.47,2.47,0,0,0,50.42,7.4h3.01a1.315,1.315,0,0,1,1.4,1.214.949.949,0,0,1-.434.727h-.9a.276.276,0,1,0,0,.546Z" transform="translate(0 0)"/></g>
    </symbol>
    <!-- bad -->
    <symbol id="bad" viewBox="0 0 16.5 16.925">
        <g id="よくないねアイコン2" transform="translate(-38.118 0)"><path id="パス_2" data-name="パス 2" d="M52.128,7.171a2.182,2.182,0,0,0-.362-2.462,2.226,2.226,0,0,0-.857-2.356A2.209,2.209,0,0,0,49.049.225h-.005l-.015,0L48.283.114l-.027,0L48.1.094h0A11.771,11.771,0,0,0,46.534,0c-.384,0-.848.011-1.463.033a18.305,18.305,0,0,0-2.4.251,8.006,8.006,0,0,0-2.078.6,4.568,4.568,0,0,0-2.394,3.5A6.371,6.371,0,0,0,38.118,5.4,5.6,5.6,0,0,0,39.6,9.33c.425.425.824.77,1.205,1.1h0a11.907,11.907,0,0,1,1.315,1.261,21.637,21.637,0,0,1,1.648,2.177c.187.288.33.533.427.722.049.095.086.175.111.238a.67.67,0,0,1,.04.123l.041.246-.041-.246a2.511,2.511,0,0,0,.712,1.408,1.954,1.954,0,0,0,1.362.561,1.924,1.924,0,0,0,1.208-.429A2.477,2.477,0,0,0,48.4,15.36h0a4.169,4.169,0,0,0,.236-1.39,5.856,5.856,0,0,0-.445-2.09l0,.01-.046-.125,0-.011,0,.012a3.5,3.5,0,0,0-.474-.81h0c-.062-.087-.154-.216-.229-.337l-.03-.051a2.793,2.793,0,0,1,.369-.038H50.3a2.224,2.224,0,0,0,2.221-2.222A1.9,1.9,0,0,0,52.128,7.171ZM50.3,9.486H47.761a1.879,1.879,0,0,0-1.251.383c-.7.755.451,1.684.66,2.257a4.09,4.09,0,0,1,.247,2.889,1.114,1.114,0,0,1-1,.862,1.155,1.155,0,0,1-1.045-1.1,12.51,12.51,0,0,0-2.461-3.766c-.766-.9-1.635-1.481-2.577-2.423-1.668-1.668-1.666-5.578.724-6.774a12.073,12.073,0,0,1,4.049-.742c.618-.023,1.07-.033,1.424-.033a11.713,11.713,0,0,1,1.607.1l.74.107a1.174,1.174,0,0,1,.987,1.158,1.107,1.107,0,0,1-.044.307h-.209a.265.265,0,1,0,0,.53h.744a1.162,1.162,0,0,1,.432.9.883.883,0,0,1-.207.621H50.1a.265.265,0,0,0,0,.53h.774a1.16,1.16,0,0,1,.051,1.77h-.577a.265.265,0,0,0,0,.53h.761a.952.952,0,0,1,.366.705A1.177,1.177,0,0,1,50.3,9.486Z" transform="translate(0 0)"/></g>
    </symbol>
    <!-- strong -->
    <symbol id="strong" viewBox="0 0 16.5 16.925">
        <g id="マッチョのイラスト4" transform="translate(-44.054)"><path id="パス_3" data-name="パス 3" d="M58.026,10.033c-.011-.076-.059-.4-.124-.776-.037-.213-.079-.442-.124-.65-.022-.1-.045-.2-.068-.293s-.047-.171-.072-.243a43.8,43.8,0,0,0-2.2-4.887C54.718,1.774,54.131.746,54.1.7A1.244,1.244,0,0,0,52.986,0a1.218,1.218,0,0,0-.152.009L49,.478a1.085,1.085,0,0,0-.817.55h0s-.113.186-.251.429c-.069.121-.143.258-.214.394s-.137.272-.188.4a1.388,1.388,0,0,0-.111.536,1.172,1.172,0,0,0,.131.545,1.2,1.2,0,0,0,.381.429,1.35,1.35,0,0,0,.214.117,4.626,4.626,0,0,0,.5.185,9.556,9.556,0,0,0,.926.238c.156.032.307.058.447.076a2.959,2.959,0,0,0,.386.03,1.2,1.2,0,0,0,.164-.01.618.618,0,0,0,.166-.044h0a1.075,1.075,0,0,0,.274-.18,1.859,1.859,0,0,0,.344-.426,3.768,3.768,0,0,0,.306-.655c.017-.047.032-.091.045-.13a2.351,2.351,0,0,0,.29-.063c.047-.014.1-.03.149-.048.027.111.06.256.093.425a7.335,7.335,0,0,1,.146,1.353q0,.122-.006.241-.013.239-.013.483A14.464,14.464,0,0,0,52.5,7.245q.016.118.032.235a4.13,4.13,0,0,0-.7-.452,4.069,4.069,0,0,0-1.827-.444,3.629,3.629,0,0,0-1.78.46,3.948,3.948,0,0,0-.975.775,7.613,7.613,0,0,0-1.344-.76,5.114,5.114,0,0,0-1.853-.46v.566a3.853,3.853,0,0,1,.9.149,6.338,6.338,0,0,1,1.369.585c.195.11.367.219.509.317l.061.043c-.066.091-.131.186-.193.286l.48.3A3.7,3.7,0,0,1,48.5,7.538a3.063,3.063,0,0,1,1.5-.388,3.5,3.5,0,0,1,1.572.383,3.4,3.4,0,0,1,1.1.881c.031.191.062.376.09.552l.559-.09c-.035-.218-.073-.448-.112-.685l0,0-.006-.008c-.053-.325-.106-.663-.152-1.009a13.962,13.962,0,0,1-.139-1.819c0-.153,0-.3.012-.451,0-.091.007-.182.007-.273a7.9,7.9,0,0,0-.16-1.48c-.048-.246-.1-.442-.127-.56a2.194,2.194,0,0,0,.31-.258l-.4-.4a1.612,1.612,0,0,1-.374.279,1.761,1.761,0,0,1-.505.18,1.47,1.47,0,0,1-.157.022l-.039,0h-.226l-.055.212a3.843,3.843,0,0,1-.21.57,2.238,2.238,0,0,1-.238.407,1.065,1.065,0,0,1-.135.148.531.531,0,0,1-.123.082l-.029,0c-.019,0-.045,0-.076,0a2.223,2.223,0,0,1-.225-.015c-.155-.017-.342-.048-.536-.089a8.844,8.844,0,0,1-.864-.227c-.13-.042-.246-.084-.339-.122-.046-.019-.086-.038-.118-.053a.617.617,0,0,1-.066-.038.638.638,0,0,1-.2-.227.611.611,0,0,1-.067-.284.828.828,0,0,1,.068-.318c.042-.1.1-.227.169-.354.1-.191.211-.389.3-.539.043-.075.08-.137.106-.181l.03-.051.008-.013,0,0,0-.006,0-.007a.519.519,0,0,1,.395-.27L52.9.571h0a.689.689,0,0,1,.082,0A.679.679,0,0,1,53.6.957l0,.01.006.01.006.012c.069.121.67,1.179,1.389,2.588a42.584,42.584,0,0,1,2.1,4.683c.016.047.037.115.057.194.036.14.074.317.11.5.054.277.1.571.139.8.018.112.032.207.042.274l.011.077,0,.027,0,.024.007.023a.368.368,0,0,1,.017.114.58.58,0,0,1-.04.2.711.711,0,0,1-.208.292.683.683,0,0,1-.363.154l-2.07.254-.057.039h0a13.045,13.045,0,0,1-1.21.716,10.561,10.561,0,0,1-1.136.517,5.55,5.55,0,0,1-1.19.323c-.241.033-.571.059-.942.077s-.782.027-1.192.027c-.553,0-1.1-.017-1.544-.052-.22-.018-.413-.04-.561-.066-.074-.013-.136-.026-.183-.039a.5.5,0,0,1-.084-.03l-.524-.282.113.585a.725.725,0,0,1,.012.137,1.742,1.742,0,0,1-.2.719,5.781,5.781,0,0,1-.993,1.372,9.568,9.568,0,0,1-1.069.974v.708a9.808,9.808,0,0,0,1.92-1.8,5.446,5.446,0,0,0,.651-1.009,2.507,2.507,0,0,0,.244-.78c.07.012.145.024.226.034.259.033.57.056.911.072s.71.023,1.081.023c.418,0,.838-.01,1.219-.028s.723-.045.991-.082a6.148,6.148,0,0,0,1.335-.362,12.271,12.271,0,0,0,1.708-.829c.331-.192.574-.35.68-.42l1.928-.236h0a1.254,1.254,0,0,0,.943-.617,1.193,1.193,0,0,0,.167-.594A.941.941,0,0,0,58.026,10.033Z"/></g>
    </symbol>
    <!-- interest -->
    <symbol id="interest" viewBox="0 0 16.5 16.925">
        <g id="シナプスのフリーアイコン2" transform="translate(113.595 127.354)"><g id="グループ_26" data-name="グループ 26"><path id="パス_4" data-name="パス 4" d="M119.67,73.981a.6.6,0,0,0-.6.6.61.61,0,0,0,.025.17l-.8.6a.815.815,0,0,0-.776-.135l-.648-.981a.5.5,0,1,0-.425.236.47.47,0,0,0,.078-.007l.649.981a.819.819,0,0,0-.162.273l-1.152-.1a.662.662,0,1,0-.034.413l1.151.1a.816.816,0,0,0,.276.484l-.282.585-.057,0a.6.6,0,1,0,.431.183l.282-.584a.815.815,0,0,0,.781-.271l.712.346a.467.467,0,1,0,.182-.373l-.712-.346a.814.814,0,0,0-.044-.468l.8-.6a.6.6,0,1,0,.326-1.1Z" transform="translate(-224.632 -197.014)"/><path id="パス_5" data-name="パス 5" d="M45.591,9.211,44.474,6.843V6.812a6.813,6.813,0,0,0-13.626,0,7.556,7.556,0,0,0,1.569,4.634v2.343A1.453,1.453,0,0,0,33.3,15.13l.044.019.046.015,5.381,1.663a1.456,1.456,0,0,0,1.97-1.362V14.158h2.035A1.458,1.458,0,0,0,44.237,12.7V11.47l.673-.327A1.462,1.462,0,0,0,45.591,9.211Zm-1.1,1.074-.926.45a.5.5,0,0,0-.283.453V12.7a.5.5,0,0,1-.5.5H40.3a.5.5,0,0,0-.5.5v1.755a.5.5,0,0,1-.7.463l-5.416-1.674a.5.5,0,0,1-.306-.464V11.128A6.7,6.7,0,0,1,31.8,6.812a5.86,5.86,0,0,1,11.72,0c0,.078,0,.155-.006.232l1.214,2.574A.5.5,0,0,1,44.494,10.286Z" transform="translate(-144.443 -127.354)"/></g></g>
    </symbol>
    <!-- dream -->
    <symbol id="dream" viewBox="0 0 16.5 16.925">
        <g id="射的のアイコン" transform="translate(-0.003 0)"><path id="パス_6" data-name="パス 6" d="M129.931,227.159l.826-.826a2.6,2.6,0,1,0,1.274,1.275l-.826.826a1.561,1.561,0,1,1-1.275-1.275Z" transform="translate(-122.839 -218.578)"/><path id="パス_7" data-name="パス 7" d="M70.831,163.366a4.685,4.685,0,1,0,1.275,1.275l-.754.754a3.644,3.644,0,1,1-1.275-1.275Z" transform="translate(-61.452 -157.073)"/><path id="パス_8" data-name="パス 8" d="M11.4,102.454a5.725,5.725,0,1,1-1.275-1.275l.743-.743a6.766,6.766,0,1,0,1.275,1.274Z" transform="translate(0 -95.634)"/><path id="パス_9" data-name="パス 9" d="M201.108,2.316a.282.282,0,0,0-.281-.179l-1.926.09L198.992.3a.282.282,0,0,0-.179-.282.324.324,0,0,0-.342.08l-2.055,2.055-.106,2.273L191.236,9.5a.52.52,0,1,0,.391.391L196.7,4.82l2.273-.106,2.055-2.055A.324.324,0,0,0,201.108,2.316Z" transform="translate(-184.182 0)"/></g>
    </symbol>
    <!-- html -->
    <symbol id="html" viewBox="0 0 23.143 27">
        <path id="html5" d="M0,32,2.1,55.854,11.541,59l9.5-3.146L23.143,32Zm18.575,7.708H7.5l.247,2.977H18.327l-.82,8.944-5.9,1.627v.018h-.066L5.593,51.629l-.362-4.568H8.106l.211,2.3,3.224.874,3.236-.874.362-3.749H5.081l-.771-8.775H18.84Z" transform="translate(0 -32)"/>
    </symbol>
    <!-- css -->
    <symbol id="css" viewBox="0 0 23.143 27">
        <path id="css3-alt" d="M0,32,2.1,55.854,11.571,59l9.468-3.146L23.143,32Zm18.87,4.821-.289,2.851-6.949,2.971-.018.006h6.72l-.771,8.835-5.918,1.73-5.954-1.76L5.3,47H8.251l.193,2.308,3.17.8,3.3-.928.223-3.713L5.111,45.44v-.006L5.1,45.44l-.217-2.79,6.756-2.815.392-.163H4.623l-.35-2.851Z" transform="translate(0 -32)"/>
    </symbol>
    <!-- scss -->
    <symbol id="scss" viewBox="0 0 36.021 27">
        <path id="scss" d="M30.892,15.745a7.421,7.421,0,0,0-3.265.76,6.717,6.717,0,0,1-.732-1.689,4.67,4.67,0,0,1-.063-1.421,11.4,11.4,0,0,1,.429-1.534c-.007-.063-.077-.373-.8-.38s-1.351.141-1.421.331a8.081,8.081,0,0,0-.3,1.076,25.608,25.608,0,0,1-2.2,4.236,4.319,4.319,0,0,1-.5-1.238,4.67,4.67,0,0,1-.063-1.421A11.4,11.4,0,0,1,22.4,12.93c-.007-.063-.077-.373-.8-.38s-1.351.141-1.421.331-.148.64-.3,1.076-1.907,4.348-2.364,5.368c-.232.521-.436.936-.584,1.217s-.007.021-.021.049l-.2.373v.007c-.1.176-.2.345-.253.345a2.347,2.347,0,0,1,.014-1.119c.26-1.358.894-3.476.887-3.553,0-.035.12-.408-.408-.6a.641.641,0,0,0-.739.127c-.042,0-.077.113-.077.113S16.7,13.9,15.041,13.9c-1.041,0-2.477,1.133-3.187,2.167-.45.246-1.407.767-2.42,1.323-.387.211-.788.436-1.168.64l-.077-.084C6.176,15.8,2.454,14.281,2.608,11.4c.056-1.048.422-3.813,7.148-7.162,5.509-2.744,9.921-1.991,10.687-.317,1.091,2.392-2.357,6.839-8.084,7.479a4.3,4.3,0,0,1-3.616-.915c-.3-.331-.345-.345-.457-.281-.183.1-.07.394,0,.57A3.4,3.4,0,0,0,10.355,12.4a10.963,10.963,0,0,0,6.705-.661c3.469-1.344,6.177-5.073,5.382-8.19C21.633.371,16.37-.67,11.4,1.1A25.042,25.042,0,0,0,2.918,5.958c-2.744,2.561-3.18,4.8-3,5.727C.561,15,5.127,17.159,6.957,18.756c-.091.049-.176.1-.253.141-.915.45-4.4,2.273-5.27,4.2-.985,2.181.155,3.75.915,3.961A5.622,5.622,0,0,0,8.406,24.6a6.076,6.076,0,0,0,.542-5.594l-.021-.042.718-.422c.464-.274.922-.528,1.323-.746a8.76,8.76,0,0,0-.471,2.392,4.988,4.988,0,0,0,1.076,3.476,1.191,1.191,0,0,0,.865.281c.774,0,1.126-.64,1.513-1.407.478-.936.9-2.019.9-2.019s-.528,2.934.915,2.934c.528,0,1.055-.682,1.295-1.034v.007s.014-.021.042-.07c.056-.084.084-.134.084-.134v-.014c.211-.366.682-1.2,1.386-2.589.908-1.787,1.78-4.025,1.78-4.025a12.842,12.842,0,0,0,.345,1.449,13.886,13.886,0,0,0,.753,1.689c-.211.3-.338.464-.338.464l.007.007c-.169.225-.359.464-.556.7a20.45,20.45,0,0,0-1.689,2.118.58.58,0,0,0,.155.774,1.408,1.408,0,0,0,.887.141,3.95,3.95,0,0,0,1.323-.3,4.581,4.581,0,0,0,1.14-.6A2.538,2.538,0,0,0,23.47,19.8a4.513,4.513,0,0,0-.415-1.583c.063-.091.127-.183.19-.281a29.693,29.693,0,0,0,1.97-3.412,12.842,12.842,0,0,0,.345,1.449,10.169,10.169,0,0,0,.64,1.449A6.255,6.255,0,0,0,24.279,19.9c-.415,1.2-.091,1.738.521,1.865a1.873,1.873,0,0,0,.964-.2,4.365,4.365,0,0,0,1.217-.626,2.752,2.752,0,0,0,1.344-2.223,4.262,4.262,0,0,0-.3-1.316,6.855,6.855,0,0,1,3.49-.4c3.131.366,3.75,2.322,3.631,3.138a2.1,2.1,0,0,1-.992,1.407c-.218.134-.288.183-.267.281.028.148.127.141.317.113a2.435,2.435,0,0,0,1.7-2.174c.084-1.935-1.752-4.046-5.01-4.025ZM6.745,23.885c-1.034,1.133-2.491,1.562-3.11,1.2-.668-.387-.408-2.054.865-3.258A16.555,16.555,0,0,1,6.942,20c.148-.091.373-.225.64-.387a.731.731,0,0,1,.07-.042c.049-.028.106-.063.162-.1a4.488,4.488,0,0,1-1.069,4.411Zm7.564-5.143c-.359.879-1.119,3.138-1.576,3.011-.394-.106-.633-1.815-.077-3.5a7.822,7.822,0,0,1,1.231-2.259c.57-.633,1.189-.844,1.344-.584C15.414,15.745,14.534,18.193,14.309,18.742Zm6.241,2.983c-.155.077-.3.134-.359.091s.063-.134.063-.134.781-.837,1.091-1.224c.176-.225.387-.485.612-.781v.084A2.6,2.6,0,0,1,20.55,21.725Zm4.813-1.1c-.113-.084-.1-.345.281-1.161a4.349,4.349,0,0,1,1.069-1.379,1.742,1.742,0,0,1,.106.605A1.98,1.98,0,0,1,25.362,20.628Z" transform="translate(0.116 -0.241)"/>
    </symbol>
    <!-- javascript -->
    <symbol id="javascript" viewBox="0 0 27 27">
        <path id="square-js" d="M24.107,32H2.893A2.894,2.894,0,0,0,0,34.893V56.107A2.894,2.894,0,0,0,2.893,59H24.107A2.894,2.894,0,0,0,27,56.107V34.893A2.894,2.894,0,0,0,24.107,32ZM14.693,53.058c0,2.628-1.543,3.827-3.791,3.827a3.942,3.942,0,0,1-3.809-2.32l2.067-1.248c.4.705.759,1.3,1.633,1.3.832,0,1.362-.325,1.362-1.6V44.4h2.537v8.66Zm6,3.827a4.869,4.869,0,0,1-4.623-2.592L18.141,53.1a2.769,2.769,0,0,0,2.5,1.543c1.049,0,1.724-.524,1.724-1.254,0-.868-.687-1.175-1.85-1.687l-.633-.271c-1.832-.777-3.044-1.76-3.044-3.827a3.389,3.389,0,0,1,3.713-3.351,3.737,3.737,0,0,1,3.6,2.031l-1.977,1.266a1.726,1.726,0,0,0-1.633-1.085,1.1,1.1,0,0,0-1.211,1.085c0,.759.47,1.067,1.561,1.543l.633.271c2.158.922,3.369,1.868,3.369,3.99,0,2.278-1.8,3.532-4.2,3.532Z" transform="translate(0 -32)"/>
    </symbol>
    <!-- jQuery -->
    <symbol id="jquery" viewBox="0 0 26.995 27">
        <path id="icons8-jquery" d="M19.488,3a.7.7,0,0,0-.192.058,4.669,4.669,0,0,0-1.242,1.191.2.2,0,0,0-.019.029,5.5,5.5,0,0,0-.92,3.006,6.06,6.06,0,0,0,.472,2.387,7.369,7.369,0,0,0,4.149,3.977l.23.081c.01,0,.1.034.115.036l.067.024a2.629,2.629,0,0,0,.29.082,8.538,8.538,0,0,0,1.407.168l.23,0a5.526,5.526,0,0,0,5.1-3.164,2.007,2.007,0,0,1,.1-.177s0,0,0,0a.613.613,0,1,0-1.014-.69h0c-.9,1.321-2.431,1.721-4.557,1.194a4.384,4.384,0,0,1-.484-.156,5.859,5.859,0,0,1-.59-.247,6.25,6.25,0,0,1-1.038-.65C19.728,8.7,19,5.682,20.09,3.939a.614.614,0,0,0-.6-.935ZM14.052,4.227a.6.6,0,0,0-.4.139,14.538,14.538,0,0,0-1.918,2.042.158.158,0,0,1-.017.026,8.824,8.824,0,0,0-.321,8.854,11.047,11.047,0,0,0,.777,1.316l.084.12a5.72,5.72,0,0,0,.844,1.047c.118.134.245.264.369.388l.06.062.05.05c.127.122.256.247.391.367h0a.259.259,0,0,0,.036.036c.151.134.3.261.508.422l.055.041c.158.127.319.247.484.364l.05.036c.057.038.115.074.173.115l.058.038.067.043c.122.082.242.156.412.254.11.067.228.134.3.173l.153.084.187.1.062.029c.122.062.249.122.376.18l.194.086c.127.055.256.108.415.168l.072.026s.065.026.07.029c.115.041.233.081.35.12l.268.089a2.954,2.954,0,0,0,.46.127,14.829,14.829,0,0,0,2.419.211l.271,0a8.971,8.971,0,0,0,8.552-5.961.613.613,0,0,0-1.1-.518,7.487,7.487,0,0,1-8.267,2.694c-.153-.038-.3-.081-.487-.141-.031-.01-.058-.019-.108-.038-.108-.034-.213-.07-.333-.115l-.17-.065c-.1-.038-.2-.077-.316-.129l-.079-.036c-.146-.062-.288-.132-.415-.194l-.35-.182c-.079-.038-.149-.081-.256-.146l-.06-.034-.06-.036c-.089-.053-.177-.108-.259-.165l-.058-.036s-.053-.036-.057-.041l-.209-.134c-.149-.105-.295-.216-.465-.35l-.067-.055a9.854,9.854,0,0,1-3.3-4.76,7.622,7.622,0,0,1,1.014-5.815.611.611,0,0,0-.134-.774A.6.6,0,0,0,14.052,4.227ZM7.3,6.068a.618.618,0,0,0-.412.158A13.469,13.469,0,0,0,4.742,8.8c-2.507,3.651-2.023,9.324-.3,12.793.034.072.07.141.105.211l.024.038A1.214,1.214,0,0,0,4.649,22a.592.592,0,0,0,.06.11c.029.06.058.113.11.2l.2.338c.029.046.058.094.067.11l.12.192.1.153a1.335,1.335,0,0,0,.077.11c.1.149.192.3.3.439a.1.1,0,0,0,.014.017l.038.053c.086.125.175.245.254.343l.35.443s.043.05.046.055l.05.058c.105.129.218.259.331.384l.05.055c.108.117.218.235.333.357l.11.105c.091.1.182.189.278.278,0,0,.046.046.046.046l.1.089c.115.11.235.221.326.3,0,.007.091.081.1.086.113.1.225.2.34.29l.587.465.314.228c.038.029.079.057.12.084a.413.413,0,0,0,.048.036l.441.295c.161.105.321.2.518.321l.105.06c.122.072.247.144.364.206.07.038.139.072.2.1.084.046.175.1.314.163.012.007.11.055.122.06.139.07.28.134.458.213,0,0,.058.029.058.029.163.069.321.137.53.22.034.014.067.026.074.029.149.058.3.115.431.161l.089.036c.17.058.338.113.554.18.036.012.074.024.079.024l.122.038a4.418,4.418,0,0,0,.458.125,18.516,18.516,0,0,0,3.31.316h0a12.3,12.3,0,0,0,11.618-7.145.615.615,0,0,0-1.064-.59c-2.256,2.97-6.51,4.072-11.381,2.953-.118-.029-.237-.062-.355-.1l-.23-.07c-.156-.048-.312-.1-.463-.153l-.072-.026c-.134-.046-.268-.1-.386-.144l-.134-.053c-.149-.06-.3-.122-.441-.187l-.084-.036c-.129-.06-.254-.117-.379-.18-.01,0-.108-.053-.117-.055-.086-.043-.173-.089-.283-.149l-.5-.268a1.728,1.728,0,0,0-.153-.091c-.151-.093-.307-.187-.46-.285-.036-.022-.067-.046-.127-.086-.105-.067-.209-.137-.36-.242l-.06-.043c-.1-.072-.2-.149-.288-.211-.053-.038-.105-.081-.192-.146s-.153-.118-.225-.175l-.134-.11c-.113-.091-.218-.187-.328-.28a.308.308,0,0,0-.043-.036c-.122-.113-.247-.225-.4-.367l-.434-.431c-.105-.108-.211-.218-.331-.35s-.216-.244-.357-.412l-.259-.316a1.652,1.652,0,0,0-.105-.139c-.089-.12-.177-.237-.266-.362C6.554,16.425,5.931,9.56,7.791,7.046A.613.613,0,0,0,7.3,6.068Z" transform="translate(-3.005 -2.999)"/>
    </symbol>
    <!-- php -->
    <symbol id="php" viewBox="0 0 51.337 27">
        <path id="php" d="M25.668,89.048c13.749,0,24.321,5.791,24.321,12.152s-10.58,12.152-24.321,12.152S1.348,107.561,1.348,101.2s10.58-12.152,24.321-12.152m0-1.348C11.495,87.7,0,93.74,0,101.2s11.495,13.5,25.668,13.5,25.668-6.04,25.668-13.5S39.842,87.7,25.668,87.7ZM17.5,100.117c-.634,3.249-2.872,2.912-5.623,2.912l1.1-5.663C16.027,97.366,18.1,97.037,17.5,100.117Zm-9.69,8.647h2.944l.7-3.594c3.3,0,5.342.241,7.235-1.532,2.094-1.925,2.639-5.35,1.147-7.067a4.694,4.694,0,0,0-3.73-1.34H10.436Zm14.9-17.134h2.928l-.7,3.594c2.527,0,4.869-.184,6,.858,1.187,1.091.618,2.487-.666,9.072H27.3c1.235-6.369,1.468-6.9,1.019-7.38-.433-.465-1.42-.369-3.8-.369l-1.508,7.749H20.086L22.709,91.63Zm17.8,8.487c-.642,3.3-2.944,2.912-5.623,2.912l1.1-5.663C39.048,97.366,41.1,97.037,40.508,100.117Zm-9.69,8.647H33.77l.7-3.594c3.465,0,5.382.2,7.235-1.532,2.094-1.925,2.639-5.35,1.147-7.067a4.694,4.694,0,0,0-3.73-1.34H33.449Z" transform="translate(0 -87.7)"/>
    </symbol>
    <!-- Laravel -->
    <symbol id="laravel" viewBox="0 0 26.225 27">
        <path id="laravel" d="M33.543,6.107a.3.3,0,0,0-.015-.036A.449.449,0,0,0,33.5,6a.316.316,0,0,0-.028-.037.494.494,0,0,0-.038-.05c-.012-.012-.027-.021-.041-.032a.466.466,0,0,0-.047-.036L28.269,2.928a.422.422,0,0,0-.422,0L22.77,5.852h0a.425.425,0,0,0-.046.036.405.405,0,0,0-.041.032.434.434,0,0,0-.038.049c-.009.013-.021.024-.028.037a.511.511,0,0,0-.027.066c0,.012-.011.023-.015.036a.426.426,0,0,0-.015.11v5.55L18.329,14.2V3.344a.411.411,0,0,0-.015-.11c0-.013-.011-.024-.015-.036a.44.44,0,0,0-.027-.065c-.007-.014-.02-.025-.028-.038a.494.494,0,0,0-.038-.05.5.5,0,0,0-.041-.032.517.517,0,0,0-.046-.036h0L13.04.055a.422.422,0,0,0-.422,0L7.541,2.977h0a.344.344,0,0,0-.046.036.412.412,0,0,0-.042.032.43.43,0,0,0-.037.049c-.009.013-.021.024-.029.038A.415.415,0,0,0,7.36,3.2a.341.341,0,0,0-.015.035.431.431,0,0,0-.015.111V20.73a.422.422,0,0,0,.211.367l10.151,5.845a.465.465,0,0,0,.07.028c.011,0,.022.011.033.014a.418.418,0,0,0,.216,0c.011,0,.02-.008.029-.012a.453.453,0,0,0,.074-.031L28.269,21.1a.422.422,0,0,0,.211-.367V15.179l4.864-2.8a.422.422,0,0,0,.211-.369V6.217A.455.455,0,0,0,33.543,6.107ZM12.829.91h0l4.229,2.434L12.828,5.778,8.6,3.344Zm4.654,3.164V14.69L15.029,16.1l-1.777,1.023V6.511L15.706,5.1Zm0,21.768L8.176,20.486V4.076L9.952,5.1l2.453,1.413V17.858a.366.366,0,0,0,.006.047.422.422,0,0,0,.008.062h0a.312.312,0,0,0,.02.047.336.336,0,0,0,.022.053h0a.45.45,0,0,0,.032.041.4.4,0,0,0,.035.044h0c.012.012.027.02.041.031a.471.471,0,0,0,.045.035h0l4.862,2.752Zm.422-5.6-4.222-2.39L18.117,15.3l4.865-2.8,4.226,2.433-3.1,1.77Zm9.731.241-9.307,5.36V20.976l6.893-3.934,2.414-1.379Zm0-6.282-1.777-1.019L23.4,11.769V6.948l1.777,1.023,2.454,1.414Zm.422-5.552L23.827,6.215,28.057,3.78l4.228,2.434Zm.422,5.552V9.385l2.459-1.414,1.776-1.023v4.819h0Z" transform="translate(-7.33 0.002)"/>
    </symbol>
    <!-- SQL -->
    <symbol id="sql" viewBox="0 0 23.625 27">
        <path id="database-solid" d="M23.625,4.219V6.75c0,2.331-5.289,4.219-11.812,4.219S0,9.081,0,6.75V4.219C0,1.888,5.289,0,11.813,0S23.625,1.888,23.625,4.219Zm-2.89,7.1a10.316,10.316,0,0,0,2.89-1.508v5.374c0,2.331-5.289,4.219-11.812,4.219S0,17.518,0,15.188V9.814a10.18,10.18,0,0,0,2.89,1.508,27.514,27.514,0,0,0,8.923,1.334A27.514,27.514,0,0,0,20.735,11.322ZM0,18.251A10.18,10.18,0,0,0,2.89,19.76a27.514,27.514,0,0,0,8.923,1.334,27.514,27.514,0,0,0,8.923-1.334,10.316,10.316,0,0,0,2.89-1.508v4.53c0,2.331-5.289,4.219-11.812,4.219S0,25.112,0,22.781Z"/>
    </symbol>
    <!-- WordPress -->
    <symbol id="wordpress" viewBox="0 0 27 27">
        <path id="wordpress" d="M10.923,16.786l5.525,15.133a11.583,11.583,0,0,1-5.525-15.133Zm18.394,4.132a6.107,6.107,0,0,0-.953-3.2,5.416,5.416,0,0,1-1.138-2.716,2,2,0,0,1,1.943-2.058c.049,0,.1.005.152.011a11.58,11.58,0,0,0-17.5,2.177c.272.011.528.016.746.016,1.208,0,3.086-.147,3.086-.147a.478.478,0,0,1,.076.953s-.626.071-1.323.109l4.219,12.542,2.537-7.6-1.8-4.943c-.626-.038-1.214-.109-1.214-.109a.478.478,0,0,1,.071-.953s1.911.147,3.048.147c1.208,0,3.086-.147,3.086-.147a.478.478,0,0,1,.076.953s-.626.071-1.323.109l4.186,12.449,1.154-3.859a14.3,14.3,0,0,0,.871-3.74ZM21.7,22.512l-3.473,10.1a11.539,11.539,0,0,0,7.115-.185.867.867,0,0,1-.082-.158Zm9.962-6.57a9.022,9.022,0,0,1,.076,1.192,10.879,10.879,0,0,1-.882,4.148L27.319,31.511a11.592,11.592,0,0,0,4.344-15.569ZM35,21.5A13.5,13.5,0,1,1,21.5,8,13.515,13.515,0,0,1,35,21.5Zm-.621,0A12.879,12.879,0,1,0,21.5,34.379,12.895,12.895,0,0,0,34.379,21.5Z" transform="translate(-8 -8)"/>
    </symbol>
    <!-- React -->
    <symbol id="react" viewBox="0 0 26.545 28.366">
        <g id="グループ_109" data-name="グループ 109" transform="translate(-4257.5 -2261.317)"><circle id="楕円形_11" data-name="楕円形 11" cx="2.38" cy="2.38" r="2.38" transform="translate(4268.393 2273.12)"/><g id="グループ_108" data-name="グループ 108" transform="translate(4258 2262)"><ellipse id="楕円形_12" data-name="楕円形 12" cx="12.773" cy="4.877" rx="12.773" ry="4.877" transform="translate(0 8.623)" fill="none" stroke="#000" stroke-width="1"/><ellipse id="楕円形_13" data-name="楕円形 13" cx="12.773" cy="4.877" rx="12.773" ry="4.877" transform="translate(10.61 0) rotate(60)" fill="none" stroke="#000" stroke-width="1"/><ellipse id="楕円形_14" data-name="楕円形 14" cx="12.773" cy="4.877" rx="12.773" ry="4.877" transform="translate(23.383 4.877) rotate(120)" fill="none" stroke="#000" stroke-width="1"/></g></g>
    </symbol>
</svg>

<svg xmlns="http://www.w3.org/2000/svg" width="26.545" height="28.366" viewBox="0 0 26.545 28.366">
  <g id="グループ_109" data-name="グループ 109" transform="translate(-4257.5 -2261.317)"><circle id="楕円形_11" data-name="楕円形 11" cx="2.38" cy="2.38" r="2.38" transform="translate(4268.393 2273.12)"/><g id="グループ_108" data-name="グループ 108" transform="translate(4258 2262)"><ellipse id="楕円形_12" data-name="楕円形 12" cx="12.773" cy="4.877" rx="12.773" ry="4.877" transform="translate(0 8.623)" fill="none" stroke="#000" stroke-width="1"/><ellipse id="楕円形_13" data-name="楕円形 13" cx="12.773" cy="4.877" rx="12.773" ry="4.877" transform="translate(10.61 0) rotate(60)" fill="none" stroke="#000" stroke-width="1"/><ellipse id="楕円形_14" data-name="楕円形 14" cx="12.773" cy="4.877" rx="12.773" ry="4.877" transform="translate(23.383 4.877) rotate(120)" fill="none" stroke="#000" stroke-width="1"/></g></g>
</svg>








