<svg xmlns="http://www.w3.org/2000/svg" xmlns:xlink="http://www.w3.org/1999/xlink">
    <!-- logo -->
    <symbol id="logo" viewBox="0 0 153.061 23.607">
<path id="パス_13" data-name="パス 13" d="M3.995-23.08H9.906L14.229-9.246,18.556-23.08h5.7L27.229,0H22.49L20.452-16.242,15.373,0H13.114L7.9-16.383,5.978,0H1.16Zm36.308,0h3.854L53.559,0H48.553L46.706-4.535H37.848L36.039,0h-4.98Zm1.927,7.559-2.713,6.8H45ZM58.963-23.08h4.975v9.747h.07l7.64-9.747h6.106L68.986-12.06,78.123,0h-5.98L64.008-10.8h-.07V0H58.963Zm23.79,11.531A11.351,11.351,0,0,1,86.137-20a11.051,11.051,0,0,1,8.024-3.331,11.523,11.523,0,0,1,8.49,3.349,11.456,11.456,0,0,1,3.357,8.464,11.506,11.506,0,0,1-3.322,8.438A11.282,11.282,0,0,1,94.319.281a11.11,11.11,0,0,1-8.306-3.34A11.652,11.652,0,0,1,82.753-11.549ZM94.39-18.721a5.728,5.728,0,0,0-4.676,2,7.834,7.834,0,0,0-1.775,5.309,7.355,7.355,0,0,0,1.811,5.1,5.872,5.872,0,0,0,4.57,2.021,5.984,5.984,0,0,0,4.685-2,7.6,7.6,0,0,0,1.784-5.265,7.451,7.451,0,0,0-1.749-5.168A6.1,6.1,0,0,0,94.39-18.721Zm16.346-4.359h15.521v4.9h-5.291V0h-4.975V-18.176h-5.256Zm20.23,11.531A11.351,11.351,0,0,1,134.349-20a11.051,11.051,0,0,1,8.024-3.331,11.523,11.523,0,0,1,8.49,3.349,11.456,11.456,0,0,1,3.357,8.464A11.506,11.506,0,0,1,150.9-3.076,11.282,11.282,0,0,1,142.532.281a11.11,11.11,0,0,1-8.306-3.34A11.652,11.652,0,0,1,130.965-11.549ZM142.6-18.721a5.728,5.728,0,0,0-4.676,2,7.834,7.834,0,0,0-1.775,5.309,7.355,7.355,0,0,0,1.811,5.1,5.872,5.872,0,0,0,4.57,2.021,5.984,5.984,0,0,0,4.685-2A7.6,7.6,0,0,0,149-11.549a7.451,7.451,0,0,0-1.749-5.168A6.1,6.1,0,0,0,142.6-18.721Z" transform="translate(-1.16 23.326)" fill="#fff"/>
    </symbol>
    <!-- twitter -->
    <symbol id="twitter" viewBox="0 0 40 40">
        <g id="グループ_98" data-name="グループ 98" transform="translate(-2009 169)"><path id="楕円形_1" data-name="楕円形 1" d="M20,1a19.005,19.005,0,0,0-7.4,36.507A19.005,19.005,0,0,0,27.4,2.493,18.88,18.88,0,0,0,20,1m0-1A20,20,0,1,1,0,20,20,20,0,0,1,20,0Z" transform="translate(2009 -169)" fill="#000"/><path id="Twitter-logo" d="M19.85,5.745c.013.185.013.37.013.557A12.176,12.176,0,0,1,7.6,18.561v0A12.2,12.2,0,0,1,1,16.626a8.764,8.764,0,0,0,1.025.062,8.651,8.651,0,0,0,5.351-1.848,4.314,4.314,0,0,1-4.025-2.992A4.3,4.3,0,0,0,5.3,11.774,4.309,4.309,0,0,1,1.84,7.551V7.5A4.281,4.281,0,0,0,3.8,8.036,4.314,4.314,0,0,1,2.462,2.283a12.228,12.228,0,0,0,8.879,4.5,4.312,4.312,0,0,1,7.342-3.93A8.645,8.645,0,0,0,21.42,1.809a4.324,4.324,0,0,1-1.894,2.383A8.569,8.569,0,0,0,22,3.514a8.753,8.753,0,0,1-2.15,2.232Z" transform="translate(2017.5 -158.529)" fill="#000"/></g>
    </symbol>
    <!-- instagram -->
    <symbol id="instagram" viewBox="0 0 40 40">
        <g id="グループ_99" data-name="グループ 99" transform="translate(-2120 170)"><path id="楕円形_1" data-name="楕円形 1" d="M20,1a19.005,19.005,0,0,0-7.4,36.507A19.005,19.005,0,0,0,27.4,2.493,18.88,18.88,0,0,0,20,1m0-1A20,20,0,1,1,0,20,20,20,0,0,1,20,0Z" transform="translate(2120 -170)" fill="#000"/><path id="icons8-インスタグラム" d="M8.833,3A5.84,5.84,0,0,0,3,8.833v9.333A5.84,5.84,0,0,0,8.833,24h9.333A5.84,5.84,0,0,0,24,18.167V8.833A5.84,5.84,0,0,0,18.167,3Zm0,2.333h9.333a3.5,3.5,0,0,1,3.5,3.5v9.333a3.5,3.5,0,0,1-3.5,3.5H8.833a3.5,3.5,0,0,1-3.5-3.5V8.833A3.5,3.5,0,0,1,8.833,5.333ZM19.333,6.5A1.167,1.167,0,1,0,20.5,7.667,1.167,1.167,0,0,0,19.333,6.5ZM13.5,7.667A5.833,5.833,0,1,0,19.333,13.5,5.84,5.84,0,0,0,13.5,7.667ZM13.5,10A3.5,3.5,0,1,1,10,13.5,3.5,3.5,0,0,1,13.5,10Z" transform="translate(2127 -163)" fill="#000"/></g>
    </symbol>
    <!-- github -->
    <symbol id="github" viewBox="0 0 40 40">
        <g id="グループ_100" data-name="グループ 100" transform="translate(-2190 170)"><path id="楕円形_1" data-name="楕円形 1" d="M20,1a19.005,19.005,0,0,0-7.4,36.507A19.005,19.005,0,0,0,27.4,2.493,18.88,18.88,0,0,0,20,1m0-1A20,20,0,1,1,0,20,20,20,0,0,1,20,0Z" transform="translate(2190 -170)" fill="#000"/><path id="icons8-github" d="M14.5,3a11.493,11.493,0,0,0-2.787,22.645,1.678,1.678,0,0,1-.088-.559V23.121H10.18a2,2,0,0,1-1.826-.967c-.377-.7-.442-1.767-1.375-2.421-.277-.218-.066-.466.253-.432A3.014,3.014,0,0,1,8.77,20.472a1.478,1.478,0,0,0,1.53.737,10.988,10.988,0,0,0,1.621-.116,3.608,3.608,0,0,1,1.522-1.88c-3.829-.394-5.657-2.3-5.657-4.886a4.7,4.7,0,0,1,1.28-3.1c-.264-.9-.6-2.738.1-3.438a4,4,0,0,1,3.015,1.419,8.7,8.7,0,0,1,5.593,0,4,4,0,0,1,3.017-1.421c.7.7.365,2.545.1,3.444a4.7,4.7,0,0,1,1.273,3.092c0,2.585-1.825,4.489-5.648,4.885a4.034,4.034,0,0,1,1.82,3.254v2.62a1.686,1.686,0,0,1-.034.257A11.494,11.494,0,0,0,14.5,3Z" transform="translate(2195.5 -163.823)" fill="#000"/></g>
    </symbol>
</svg>